PathFileType	4	(X/Y/Z)	D:\datacapture\jf2lin\2017-09-14 IITTimeSync\timesync2.trc
DataRate	CameraRate	NumFrames	NumMarkers	Units	OrigDataRate	OrigDataStartFrame	OrigNumFrames
100.00	100.00	      87	3	mm	100.00	1078	      2873
Frame#	Time	M1			M2			M3			
		X1	Y1	Z1	X2	Y2	Z2	X3	Y3	Z3	

1078	10.770	150.11868	1305.22571	295.26736	167.83475	1338.92371	282.53232				
1079	10.780				165.40651	1341.65039	283.42181	221.00639	1401.36023	188.87772	
1080	10.790	145.26248	1314.03284	295.73077	164.68388	1345.95508	283.56955				
1081	10.800	134.39995	1309.90564	305.25330	162.82387	1349.40674	284.80798				
1082	10.810	133.63870	1315.50488	305.95145	161.24467	1354.32251	284.54205				
1083	10.820	131.90312	1318.03735	304.54517	160.29443	1357.78406	284.41193				
1084	10.830	130.88622	1322.25391	303.19199	159.34811	1361.80469	283.14841				
1085	10.840	128.80681	1325.70386	302.31580	157.92804	1365.37976	282.56046				
1086	10.850	127.64769	1330.47522	299.95010	156.17618	1369.36011	281.30792				
1087	10.860	126.05706	1334.67053	297.73392	154.46600	1373.03223	279.18204				
1088	10.870	123.21957	1337.80005	297.50244	153.53220	1376.75208	277.49677				
1089	10.880	122.08855	1341.90918	294.97064	151.57858	1380.40833	275.93570				
1090	10.890	121.10551	1344.54749	291.12585	150.98940	1383.38672	273.34967				
1091	10.900	119.41670	1347.42432	288.19745	149.63956	1387.04663	270.58951				
1092	10.910	117.36731	1350.52417	285.60767	148.68042	1390.44922	267.88492				
1093	10.920	116.36046	1353.15430	281.63858	147.09848	1393.26611	264.79349				
1094	10.930	115.68922	1356.63110	277.06296	146.27965	1396.11096	261.74008				
1095	10.940	114.50916	1359.91003	273.17279	144.66968	1398.67407	258.24500	124.04740	1356.42139	80.12717	
1096	10.950	113.41932	1362.50159	268.90439	142.99515	1400.70911	255.27527				
1097	10.960	111.57230	1364.23547	264.85504	142.71638	1403.47351	250.88039				
1098	10.970	110.89819	1366.76611	260.33728	141.64986	1406.19373	247.27322				
1099	10.980	110.46484	1369.38232	255.22144	141.92284	1408.52283	242.62109				
1100	10.990	109.03783	1371.34790	251.15562	141.17088	1410.74170	238.35246				
1101	11.000	107.86557	1374.15576	246.59407	140.29269	1412.25818	234.90909				
1102	11.010	107.42186	1376.82690	242.34180	140.09352	1414.04175	230.17316				
1103	11.020	106.82420	1377.44177	238.04001	140.02014	1415.25671	226.34456	76.89077	1540.57581	112.86522	
1104	11.030	106.87007	1379.75610	234.59900	140.61542	1417.25049	222.19768	76.62923	1540.11523	113.16441	
1105	11.040	105.56696	1380.87463	231.46945	139.96867	1418.30750	218.89294	76.62923	1540.11523	113.16441	
1106	11.050	105.12037	1383.22522	227.59395	140.06458	1419.53711	215.46043	76.62923	1540.11523	113.16441	
1107	11.060	104.65016	1384.56030	223.11948	139.29021	1419.99902	213.17462	76.62923	1540.11523	113.16441	
1108	11.070	103.15394	1385.50806	221.19051	139.49272	1421.92029	209.77605	76.62923	1540.11523	113.16441	
1109	11.080				138.19649	1423.17261	207.90688	76.62923	1540.11523	113.16441	
1110	11.090				137.33154	1423.28723	206.49512	76.62923	1540.11523	113.16441	
1111	11.100				136.64597	1423.74561	204.70529	76.62923	1540.11523	113.16441	
1112	11.110				135.20929	1422.54199	205.02283	76.62923	1540.11523	113.16441	
1113	11.120				134.39966	1422.52954	203.26447	76.62923	1540.11523	113.16441	
1114	11.130				132.12685	1420.97229	203.96722	76.62923	1540.11523	113.16441	
1115	11.140				130.54256	1421.20630	203.64864	75.96705	1539.70789	113.13843	
1116	11.150				128.46124	1420.96289	203.13281	75.96705	1539.70789	113.13843	
1117	11.160				126.62157	1421.67969	202.15387	75.96705	1539.70789	113.13843	
1118	11.170				125.74504	1422.42603	201.93927	75.96705	1539.70789	113.13843	
1119	11.180				124.56866	1423.30969	200.36127	75.88144	1539.94861	112.83223	
1120	11.190				123.73626	1422.74951	199.92606	75.88144	1539.94861	112.83223	
1121	11.200				122.88911	1423.93982	199.01863	75.88144	1539.94861	112.83223	
1122	11.210				121.95933	1424.33008	198.78317	75.88144	1539.94861	112.83223	
1123	11.220				121.08402	1424.74500	197.91493	75.88144	1539.94861	112.83223	
1124	11.230				120.75936	1425.17761	196.37778	75.88144	1539.94861	112.83223	
1125	11.240				120.58307	1425.51941	195.56592	75.96705	1539.70789	113.13843	
1126	11.250				120.67071	1425.61157	195.07964	75.96705	1539.70789	113.13843	
1127	11.260				120.39641	1425.76636	193.28867	75.88144	1539.94861	112.83223	
1128	11.270				120.02108	1425.70923	192.23859	75.62271	1539.58154	113.03688	
1129	11.280				119.52678	1424.88879	191.63162	75.32277	1539.01807	113.41660	
1130	11.290				119.69134	1425.13696	189.99831	75.09491	1539.01917	113.20522	
1131	11.300				118.97356	1424.34973	189.30000	75.09491	1539.01917	113.20522	
1132	11.310				117.83006	1424.14661	188.42409	75.09491	1539.01917	113.20522	
1133	11.320				117.75577	1424.12329	188.02992	75.09491	1539.01917	113.20522	
1134	11.330				117.35856	1424.67261	186.86383	75.09491	1539.01917	113.20522	
1135	11.340				117.08395	1425.41504	184.96399	75.09491	1539.01917	113.20522	
1136	11.350				116.90568	1425.64746	184.55075	75.09491	1539.01917	113.20522	
1137	11.360				117.39643	1428.26587	183.04662	75.09491	1539.01917	113.20522	
1138	11.370				117.33160	1429.05933	182.09210	75.09491	1539.01917	113.20522	
1139	11.380				116.66055	1429.07251	181.27197	75.09491	1539.01917	113.20522	
1140	11.390	124.90243	1356.79285	78.83569				75.14122	1539.38379	112.85992	
1141	11.400	124.92535	1355.74292	78.96879				75.14122	1539.38379	112.85992	
1142	11.410	124.81476	1354.31702	79.54196				75.62352	1539.48254	111.99629	
1143	11.420	124.84635	1354.19922	79.08340				75.62352	1539.48254	111.99629	
1144	11.430	125.03636	1354.07825	79.00055				75.62352	1539.48254	111.99629	
1145	11.440	125.01607	1357.56702	78.27995				75.62352	1539.48254	111.99629	
1146	11.450	124.89233	1355.29419	78.67751				75.36979	1539.28369	112.03073	
1147	11.460	124.81476	1354.31702	79.54196				75.11607	1539.08484	112.06531	
1148	11.470	125.41681	1357.29492	77.94012				75.19456	1539.14099	111.40411	
1149	11.480	125.49162	1354.93665	79.08221				75.19456	1539.14099	111.40411	
1150	11.490	125.53501	1354.80627	78.59953				74.11472	1538.58740	112.20302	
1151	11.500	125.53501	1354.80627	78.59953				74.11472	1538.58740	112.20302	
1152	11.510	125.45868	1355.64465	78.54099				74.11472	1538.58740	112.20302	
1153	11.520	125.32555	1355.36926	78.34349				74.11472	1538.58740	112.20302	
1154	11.530	125.32555	1355.36926	78.34349				74.01764	1539.02234	111.68839	
1155	11.540	125.43630	1358.40649	77.41396				74.01764	1539.02234	111.68839	
1156	11.550	125.32555	1355.36926	78.34349				73.34312	1538.66931	111.59899	
1157	11.560	125.31465	1355.97229	77.86617				73.11588	1538.31555	111.81127	
1158	11.570	125.29400	1353.85645	78.93475				73.11588	1538.31555	111.81127	
1159	11.580	125.32555	1355.36926	78.34349				73.11588	1538.31555	111.81127	
1160	11.590	125.32555	1355.36926	78.34349				73.11588	1538.31555	111.81127	
1161	11.600	125.42196	1357.56714	77.49213				73.11588	1538.31555	111.81127	
1162	11.610	125.24916	1356.20801	78.28484				73.11588	1538.31555	111.81127	
1163	11.620	125.23826	1356.81104	77.80752				73.11588	1538.31555	111.81127	
1164	11.630	125.48923	1356.86951	77.99213				73.64239	1538.44604	110.56955	
